<?xml version="1.0" encoding="UTF-8" standalone="no"?>
<!DOCTYPE svg PUBLIC "-//W3C//DTD SVG 1.1//EN"
 "http://www.w3.org/Graphics/SVG/1.1/DTD/svg11.dtd">
<!-- Generated by graphviz version 2.26.0 (20091210.2329)
 -->
<!-- Title: PolicyState Pages: 1 -->
<svg width="251pt" height="360pt"
 viewBox="0.00 0.00 251.03 360.00" xmlns="http://www.w3.org/2000/svg" xmlns:xlink="http://www.w3.org/1999/xlink">
<g id="graph1" class="graph" transform="scale(0.972973 0.972973) rotate(0) translate(4 366)">
<title>PolicyState</title>
<polygon fill="white" stroke="white" points="-4,5 -4,-366 255,-366 255,5 -4,5"/>
<!-- Unwritten -->
<g id="node1" class="node"><title>Unwritten</title>
<ellipse fill="none" stroke="black" cx="54" cy="-308" rx="50.2046" ry="50.2046"/>
<ellipse fill="none" stroke="black" cx="54" cy="-308" rx="54.2046" ry="54.2046"/>
<text text-anchor="middle" x="54" y="-304.9" font-family="Times Roman,serif" font-size="14.00">Unwritten</text>
</g>
<!-- Void -->
<g id="node2" class="node"><title>Void</title>
<polygon fill="#ff0000" stroke="#ff0000" points="54,-56 2.4869e-14,-56 0,-20 54,-20 54,-56"/>
<text text-anchor="middle" x="27" y="-34.9" font-family="Times Roman,serif" font-size="14.00">Void</text>
</g>
<!-- Unwritten&#45;&gt;Void -->
<g id="edge4" class="edge"><title>Unwritten&#45;&gt;Void</title>
<path fill="none" stroke="black" d="M46.6744,-254.346C44.3631,-236.446 41.9155,-216.382 40,-198 35.1989,-151.928 31.1521,-98.2348 28.904,-66.2382"/>
<polygon fill="black" stroke="black" points="32.3957,-65.9952 28.2121,-56.2613 25.4124,-66.4796 32.3957,-65.9952"/>
<text text-anchor="middle" x="54" y="-161.9" font-family="Times Roman,serif" font-size="14.00">Void</text>
</g>
<!-- Open -->
<g id="node5" class="node"><title>Open</title>
<ellipse fill="lightgrey" stroke="black" cx="109" cy="-165" rx="32.0265" ry="32.5269"/>
<text text-anchor="middle" x="109" y="-161.9" font-family="Times Roman,serif" font-size="14.00">Open</text>
</g>
<!-- Unwritten&#45;&gt;Open -->
<g id="edge2" class="edge"><title>Unwritten&#45;&gt;Open</title>
<path fill="none" stroke="black" d="M73.3909,-257.584C79.9988,-240.403 87.2926,-221.439 93.5492,-205.172"/>
<polygon fill="black" stroke="black" points="96.9723,-206.022 97.2954,-195.432 90.4389,-203.509 96.9723,-206.022"/>
<text text-anchor="middle" x="103" y="-222.9" font-family="Times Roman,serif" font-size="14.00">Open</text>
</g>
<!-- Cancelled -->
<g id="node3" class="node"><title>Cancelled</title>
<polygon fill="#d7ff3e" stroke="#d7ff3e" points="144,-56 74,-56 74,-20 144,-20 144,-56"/>
<text text-anchor="middle" x="109" y="-34.9" font-family="Times Roman,serif" font-size="14.00">Cancelled</text>
</g>
<!-- Open&#45;&gt;Void -->
<g id="edge12" class="edge"><title>Open&#45;&gt;Void</title>
<path fill="none" stroke="black" d="M91.4089,-137.755C77.4912,-116.2 58.1613,-86.262 44.3156,-64.8181"/>
<polygon fill="black" stroke="black" points="47.114,-62.6996 38.7493,-56.1971 41.2332,-66.4966 47.114,-62.6996"/>
<text text-anchor="middle" x="89" y="-100.9" font-family="Times Roman,serif" font-size="14.00">Void</text>
</g>
<!-- Open&#45;&gt;Cancelled -->
<g id="edge6" class="edge"><title>Open&#45;&gt;Cancelled</title>
<path fill="none" stroke="black" d="M109,-132.294C109,-111.831 109,-85.7373 109,-66.1893"/>
<polygon fill="black" stroke="black" points="112.5,-66.08 109,-56.0801 105.5,-66.0801 112.5,-66.08"/>
<text text-anchor="middle" x="128" y="-100.9" font-family="Times Roman,serif" font-size="14.00">Cancel</text>
</g>
<!-- Open&#45;&gt;Open -->
<g id="edge10" class="edge"><title>Open&#45;&gt;Open</title>
<path fill="none" stroke="black" d="M139.268,-176.239C150.138,-176.481 159,-172.734 159,-165 159,-159.924 155.183,-156.566 149.487,-154.925"/>
<polygon fill="black" stroke="black" points="149.6,-151.416 139.268,-153.761 148.807,-158.371 149.6,-151.416"/>
<text text-anchor="middle" x="179" y="-161.9" font-family="Times Roman,serif" font-size="14.00">Update</text>
</g>
<!-- Closed -->
<g id="node9" class="node"><title>Closed</title>
<ellipse fill="lightgrey" stroke="black" cx="212" cy="-38" rx="38.1838" ry="38.1838"/>
<text text-anchor="middle" x="212" y="-34.9" font-family="Times Roman,serif" font-size="14.00">Closed</text>
</g>
<!-- Open&#45;&gt;Closed -->
<g id="edge8" class="edge"><title>Open&#45;&gt;Closed</title>
<path fill="none" stroke="black" d="M129.349,-139.909C144.152,-121.657 164.454,-96.6243 181.232,-75.9367"/>
<polygon fill="black" stroke="black" points="184.126,-77.9254 187.707,-67.954 178.689,-73.5161 184.126,-77.9254"/>
<text text-anchor="middle" x="178.5" y="-100.9" font-family="Times Roman,serif" font-size="14.00">Close</text>
</g>
<!-- Closed&#45;&gt;Open -->
<g id="edge14" class="edge"><title>Closed&#45;&gt;Open</title>
<path fill="none" stroke="black" d="M211.379,-76.0735C209.588,-89.0603 205.755,-103.052 198,-114 186.101,-130.798 166.802,-142.825 149.211,-150.963"/>
<polygon fill="black" stroke="black" points="147.46,-147.907 139.673,-155.091 150.24,-154.332 147.46,-147.907"/>
<text text-anchor="middle" x="222" y="-100.9" font-family="Times Roman,serif" font-size="14.00">Open</text>
</g>
</g>
</svg>
